<svg width="180" height="40" viewBox="0 0 180 40" fill="none" xmlns="http://www.w3.org/2000/svg">
  <path d="M20 0C8.954 0 0 8.954 0 20C0 31.046 8.954 40 20 40C31.046 40 40 31.046 40 20C40 8.954 31.046 0 20 0ZM20 6C26.627 6 32 11.373 32 18C32 24.627 26.627 30 20 30C13.373 30 8 24.627 8 18C8 11.373 13.373 6 20 6Z" fill="#8A3FFC"/>
  <path d="M54.648 30V10.2H62.304C64.032 10.2 65.496 10.512 66.696 11.136C67.896 11.76 68.808 12.624 69.432 13.728C70.056 14.832 70.368 16.104 70.368 17.544C70.368 18.984 70.056 20.256 69.432 21.36C68.808 22.464 67.896 23.328 66.696 23.952C65.496 24.576 64.032 24.888 62.304 24.888H57.6V30H54.648ZM57.6 22.32H62.088C63.528 22.32 64.608 21.96 65.328 21.24C66.048 20.52 66.408 19.224 66.408 17.544C66.408 15.864 66.048 14.568 65.328 13.848C64.608 13.128 63.528 12.768 62.088 12.768H57.6V22.32Z" fill="#333333"/>
  <path d="M74.1117 30V13.2H76.8477V16.032H77.0877C77.3837 15.072 77.9037 14.328 78.6477 13.8C79.3917 13.272 80.2517 13.008 81.2277 13.008C81.4437 13.008 81.6917 13.02 81.9717 13.044C82.2517 13.068 82.4757 13.104 82.6437 13.152V15.768C82.5237 15.696 82.3077 15.624 81.9957 15.552C81.6837 15.48 81.3597 15.444 81.0237 15.444C80.2317 15.444 79.5237 15.612 78.8997 15.948C78.2757 16.284 77.7797 16.752 77.4117 17.352C77.0437 17.952 76.8597 18.648 76.8597 19.44V30H74.1117Z" fill="#333333"/>
  <path d="M87.3469 30V13.2H90.0949V30H87.3469ZM88.7349 10.104C88.1349 10.104 87.6229 9.912 87.1989 9.528C86.7749 9.144 86.5629 8.688 86.5629 8.16C86.5629 7.632 86.7749 7.176 87.1989 6.792C87.6229 6.408 88.1349 6.216 88.7349 6.216C89.3349 6.216 89.8469 6.408 90.2709 6.792C90.6949 7.176 90.9069 7.632 90.9069 8.16C90.9069 8.688 90.6949 9.144 90.2709 9.528C89.8469 9.912 89.3349 10.104 88.7349 10.104Z" fill="#333333"/>
  <path d="M94.7803 30V13.2H97.5163V16.032H97.7083C98.0763 15.072 98.7003 14.316 99.5803 13.764C100.46 13.212 101.54 12.936 102.82 12.936C104.1 12.936 105.188 13.212 106.084 13.764C106.98 14.316 97.5163 13.2 97.5163 13.2V30H94.7803Z" fill="#333333"/>
  <path d="M108.8 30V13.2H111.548V30H108.8ZM110.188 10.104C109.588 10.104 109.076 9.912 108.652 9.528C108.228 9.144 108.016 8.688 108.016 8.16C108.016 7.632 108.228 7.176 108.652 6.792C109.076 6.408 109.588 6.216 110.188 6.216C110.788 6.216 111.3 6.408 111.724 6.792C112.148 7.176 112.36 7.632 112.36 8.16C112.36 8.688 112.148 9.144 111.724 9.528C111.3 9.912 110.788 10.104 110.188 10.104Z" fill="#333333"/>
  <path d="M117.233 30L110.449 13.2H113.401L118.721 27.12H118.877L124.197 13.2H127.149L120.353 30H117.233Z" fill="#333333"/>
  <path d="M130.783 9.84V13.2H134.543V15.552H130.783V25.536C130.783 26.064 130.903 26.46 131.143 26.724C131.383 26.988 131.791 27.12 132.367 27.12C132.631 27.12 132.883 27.108 133.123 27.084C133.363 27.06 133.567 27.036 133.735 27.012V29.424C133.495 29.496 133.183 29.556 132.799 29.604C132.415 29.652 132.055 29.676 131.719 29.676C130.807 29.676 130.039 29.52 129.415 29.208C128.791 28.896 128.323 28.428 128.011 27.804C127.699 27.18 127.543 26.412 127.543 25.5V15.552H124.411V13.2H127.543V9.84H130.783Z" fill="#333333"/>
  <path d="M153.496 13.2L147.08 30H144.08L137.664 13.2H140.688L145.6 26.832H145.56L150.472 13.2H153.496Z" fill="#333333"/>
  <path d="M156.562 30V13.2H159.31V30H156.562ZM157.95 10.104C157.35 10.104 156.838 9.912 156.414 9.528C155.99 9.144 155.778 8.688 155.778 8.16C155.778 7.632 155.99 7.176 156.414 6.792C156.838 6.408 157.35 6.216 157.95 6.216C158.55 6.216 159.062 6.408 159.486 6.792C159.91 7.176 160.122 7.632 160.122 8.16C160.122 8.688 159.91 9.144 159.486 9.528C159.062 9.912 158.55 10.104 157.95 10.104Z" fill="#333333"/>
  <path d="M162.994 30V10.2H170.65C172.378 10.2 173.842 10.512 175.042 11.136C176.242 11.76 177.154 12.624 177.778 13.728C178.402 14.832 178.714 16.104 178.714 17.544C178.714 18.984 178.402 20.256 177.778 21.36C177.154 22.464 176.242 23.328 175.042 23.952C173.842 24.576 172.378 24.888 170.65 24.888H165.946V30H162.994ZM165.946 22.32H170.434C171.874 22.32 172.954 21.96 173.674 21.24C174.394 20.52 174.754 19.224 174.754 17.544C174.754 15.864 174.394 14.568 173.674 13.848C172.954 13.128 171.874 12.768 170.434 12.768H165.946V22.32Z" fill="#333333"/>
</svg> 